<svg width="500" height="500" viewBox="0 0 500 500" fill="none" xmlns="http://www.w3.org/2000/svg">
<rect width="500" height="500" fill="white"/>
<path d="M122 326.549L140.273 323.413V236.842L122 233.706V219.483H162.357V323.413L180.63 326.549V340.66H122V326.549ZM162.357 188.461H140.273V165.95H162.357V188.461Z" fill="black"/>
<path d="M311.645 305.421C311.529 305.653 311.471 305.942 311.471 306.289C311.471 306.637 311.413 306.926 311.297 307.157C311.297 309.24 311.819 311.439 312.861 313.754C313.904 315.953 315.583 317.052 317.9 317.052C318.827 317.052 319.522 316.936 319.985 316.705C326.588 314.737 333.249 311.613 339.968 307.331C346.802 303.049 353.347 298.362 359.603 293.27C365.858 288.178 371.592 282.97 376.805 277.647C382.133 272.323 386.535 267.579 390.011 263.412C391.632 261.445 393.428 260.461 395.397 260.461C397.135 260.461 398.641 261.272 399.915 262.892C401.305 264.512 402 266.711 402 269.488C402 271.687 401.363 274.291 400.089 277.3C398.93 280.309 396.961 283.549 394.181 287.021C387.346 294.543 380.338 301.776 373.156 308.72C365.974 315.663 358.734 321.855 351.436 327.294C344.138 332.617 336.84 336.899 329.542 340.139C322.36 343.38 315.294 345 308.343 345C299.887 345 293.226 342.628 288.361 337.883C283.496 333.022 281.063 325.789 281.063 316.184C281.063 315.605 281.063 315.027 281.063 314.448C281.063 313.754 281.121 313.117 281.237 312.539C278.573 317.399 275.155 321.855 270.985 325.905C266.815 329.84 262.239 333.254 257.258 336.147C252.277 338.924 247.122 341.065 241.793 342.57C236.465 344.19 231.31 345 226.329 345C222.043 345 218.104 344.421 214.513 343.264C210.922 342.107 207.794 340.255 205.13 337.709C202.582 335.163 200.554 331.923 199.048 327.988C197.658 324.053 196.963 319.309 196.963 313.754C196.963 304.033 198.469 294.832 201.481 286.153C204.493 277.358 208.489 269.315 213.471 262.024C218.452 254.617 224.128 248.021 230.499 242.234C236.986 236.332 243.647 231.356 250.481 227.306C257.432 223.139 264.324 219.957 271.159 217.758C277.993 215.559 284.249 214.46 289.925 214.46C296.528 214.46 302.204 215.559 306.953 217.758C309.27 218.915 311.413 220.478 313.382 222.445C313.846 221.404 314.309 220.42 314.773 219.494C315.931 216.717 316.973 214.344 317.9 212.377C318.827 210.294 319.464 208.789 319.812 207.864C320.159 206.822 321.144 204.392 322.766 200.573C324.387 196.754 326.241 192.298 328.326 187.206C330.527 181.999 332.844 176.444 335.276 170.542C337.825 164.639 340.141 159.085 342.227 153.877C344.312 148.669 346.107 144.214 347.613 140.51C349.119 136.691 350.046 134.261 350.393 133.22C351.204 130.326 352.305 127.549 353.695 124.887C355.085 122.11 356.707 119.737 358.56 117.77C360.529 115.687 362.788 114.067 365.337 112.909C367.885 111.636 370.781 111 374.025 111C378.427 111 382.076 111.984 384.972 113.951C387.868 115.803 389.316 119.448 389.316 124.887C389.316 127.086 389.026 129.343 388.447 131.657C387.868 133.972 387.172 136.228 386.362 138.427C385.667 140.626 384.856 142.825 383.929 145.024C383.118 147.107 382.365 149.074 381.67 150.926C375.878 162.499 369.796 175.113 363.425 188.769C357.054 202.309 350.741 215.964 344.485 229.736C338.23 243.507 332.264 256.932 326.588 270.009C320.912 283.086 315.931 294.89 311.645 305.421ZM306.432 237.547C299.482 237.779 292.184 239.283 284.538 242.061C275.734 245.07 267.684 249.583 260.386 255.601C253.088 261.503 246.89 268.794 241.793 277.473C236.812 286.153 233.974 296.105 233.279 307.331C233.279 311.96 235.248 314.274 239.187 314.274C244.052 314.274 248.686 313.291 253.088 311.323C257.49 309.24 261.66 306.521 265.599 303.165C269.653 299.693 273.418 295.758 276.893 291.361C280.368 286.963 283.554 282.392 286.45 277.647C289.462 272.902 292.126 268.215 294.443 263.586C296.875 258.841 298.96 254.444 300.698 250.393C301.277 249.12 302.088 247.326 303.131 245.012C304.057 242.813 305.158 240.325 306.432 237.547Z" fill="black"/>
</svg>
